<svg width="247" height="247" viewBox="0 0 247 247" fill="none" xmlns="http://www.w3.org/2000/svg">
<rect width="247" height="247" rx="20" fill="#FF7F50"/>
<g clip-path="url(#clip0_34_23)">
<mask id="mask0_34_23" style="mask-type:luminance" maskUnits="userSpaceOnUse" x="35" y="42" width="170" height="170">
<path d="M204.657 42.3429H35.2858V211.714H204.657V42.3429Z" fill="white"/>
</mask>
<g mask="url(#mask0_34_23)">
<path d="M42.3429 66.6508C42.3429 62.0756 44.1604 57.6878 47.3956 54.4527C50.6307 51.2175 55.0185 49.4 59.5937 49.4H180.349C184.924 49.4 189.312 51.2175 192.547 54.4527C195.783 57.6878 197.6 62.0756 197.6 66.6508V187.406C197.6 191.981 195.783 196.369 192.547 199.604C189.312 202.84 184.924 204.657 180.349 204.657H59.5937C55.0185 204.657 50.6307 202.84 47.3956 199.604C44.1604 196.369 42.3429 191.981 42.3429 187.406V66.6508Z" stroke="white" stroke-width="5" stroke-linecap="round" stroke-linejoin="round"/>
<path d="M94.0952 152.905V170.155" stroke="white" stroke-width="5" stroke-linecap="round" stroke-linejoin="round"/>
<path d="M119.971 118.403V170.156" stroke="white" stroke-width="5" stroke-linecap="round" stroke-linejoin="round"/>
<path d="M145.848 135.654V170.155" stroke="white" stroke-width="5" stroke-linecap="round" stroke-linejoin="round"/>
</g>
</g>
<defs>
<clipPath id="clip0_34_23">
<rect width="169.371" height="169.371" fill="white" transform="translate(35.2858 42.3429)"/>
</clipPath>
</defs>
</svg>
