<svg width="117" height="28" viewBox="0 0 117 28" fill="none" xmlns="http://www.w3.org/2000/svg">
<path d="M0.170455 27V0.818181H3.34091V12.4773H17.3011V0.818181H20.4716V27H17.3011V15.2898H3.34091V27H0.170455ZM26.4098 27V7.36364H29.4268V27H26.4098ZM27.9439 4.09091C27.3558 4.09091 26.8487 3.89062 26.4226 3.49006C26.005 3.08949 25.7962 2.60795 25.7962 2.04545C25.7962 1.48295 26.005 1.00142 26.4226 0.600851C26.8487 0.200284 27.3558 0 27.9439 0C28.532 0 29.0348 0.200284 29.4524 0.600851C29.8786 1.00142 30.0916 1.48295 30.0916 2.04545C30.0916 2.60795 29.8786 3.08949 29.4524 3.49006C29.0348 3.89062 28.532 4.09091 27.9439 4.09091Z" fill="#FF7F50"/>
<path d="M43.4414 27H35.3619V0.818181H43.7994C46.3391 0.818181 48.5124 1.34233 50.3192 2.39062C52.1261 3.4304 53.511 4.92614 54.4741 6.87784C55.4371 8.82102 55.9187 11.1477 55.9187 13.858C55.9187 16.5852 55.4329 18.9332 54.4613 20.902C53.4897 22.8622 52.0749 24.3707 50.217 25.4276C48.359 26.4759 46.1005 27 43.4414 27ZM38.5323 24.1875H43.2369C45.4016 24.1875 47.1957 23.7699 48.619 22.9347C50.0423 22.0994 51.1033 20.9105 51.8022 19.3679C52.5011 17.8253 52.8505 15.9886 52.8505 13.858C52.8505 11.7443 52.5053 9.92472 51.815 8.39915C51.1246 6.86506 50.0934 5.68892 48.7212 4.87074C47.3491 4.04403 45.6403 3.63068 43.5948 3.63068H38.5323V24.1875ZM69.0607 27.4091C67.1687 27.4091 65.5366 26.9915 64.1644 26.1562C62.8008 25.3125 61.7482 24.1364 61.0067 22.6278C60.2738 21.1108 59.9073 19.3466 59.9073 17.3352C59.9073 15.3239 60.2738 13.5511 61.0067 12.017C61.7482 10.4744 62.7795 9.27273 64.1005 8.41193C65.43 7.54261 66.9812 7.10795 68.7539 7.10795C69.7766 7.10795 70.7866 7.27841 71.7837 7.61932C72.7809 7.96023 73.6886 8.5142 74.5067 9.28125C75.3249 10.0398 75.9769 11.0455 76.4627 12.2983C76.9485 13.5511 77.1914 15.0937 77.1914 16.9261V18.2045H62.055V15.5966H74.1232C74.1232 14.4886 73.9016 13.5 73.4585 12.6307C73.0238 11.7614 72.4016 11.0753 71.592 10.5724C70.7908 10.0696 69.8448 9.81818 68.7539 9.81818C67.5522 9.81818 66.5124 10.1165 65.6346 10.7131C64.7653 11.3011 64.0962 12.0682 63.6275 13.0142C63.1587 13.9602 62.9244 14.9744 62.9244 16.0568V17.7955C62.9244 19.2784 63.18 20.5355 63.6914 21.5668C64.2113 22.5895 64.9315 23.3693 65.8519 23.9062C66.7724 24.4347 67.842 24.6989 69.0607 24.6989C69.8533 24.6989 70.5692 24.5881 71.2085 24.3665C71.8562 24.1364 72.4144 23.7955 72.8832 23.3438C73.3519 22.8835 73.7141 22.3125 73.9698 21.6307L76.8846 22.4489C76.5778 23.4375 76.0621 24.3068 75.3377 25.0568C74.6133 25.7983 73.7184 26.3778 72.6531 26.7955C71.5877 27.2045 70.3903 27.4091 69.0607 27.4091ZM95.69 11.7614L92.9798 12.5284C92.8093 12.0767 92.5579 11.6378 92.2255 11.2116C91.9016 10.777 91.4585 10.419 90.896 10.1378C90.3335 9.85653 89.6133 9.71591 88.7354 9.71591C87.5337 9.71591 86.5323 9.9929 85.7312 10.5469C84.9386 11.0923 84.5423 11.7869 84.5423 12.6307C84.5423 13.3807 84.815 13.973 85.3604 14.4077C85.9059 14.8423 86.7582 15.2045 87.9173 15.4943L90.832 16.2102C92.5877 16.6364 93.896 17.2884 94.7567 18.1662C95.6175 19.0355 96.0479 20.1562 96.0479 21.5284C96.0479 22.6534 95.7241 23.6591 95.0764 24.5455C94.4371 25.4318 93.5423 26.1307 92.3917 26.642C91.2411 27.1534 89.9031 27.4091 88.3775 27.4091C86.3746 27.4091 84.717 26.9744 83.4045 26.1051C82.092 25.2358 81.261 23.9659 80.9116 22.2955L83.7752 21.5795C84.0479 22.6364 84.5636 23.429 85.3221 23.9574C86.0891 24.4858 87.0906 24.75 88.3264 24.75C89.7326 24.75 90.8491 24.4517 91.6758 23.8551C92.511 23.25 92.9286 22.5256 92.9286 21.6818C92.9286 21 92.69 20.429 92.2127 19.9688C91.7354 19.5 91.0025 19.1506 90.0139 18.9205L86.7411 18.1534C84.9428 17.7273 83.6218 17.0668 82.7781 16.1719C81.9428 15.2685 81.5252 14.1392 81.5252 12.7841C81.5252 11.6761 81.8363 10.696 82.4585 9.84375C83.0891 8.99148 83.9457 8.32244 85.0281 7.83665C86.119 7.35085 87.3548 7.10795 88.7354 7.10795C90.6786 7.10795 92.2042 7.53409 93.3121 8.38636C94.4286 9.23864 95.2212 10.3636 95.69 11.7614ZM103.402 19.8409L103.351 16.108H103.964L112.555 7.36364H116.288L107.135 16.6193H106.879L103.402 19.8409ZM100.589 27V0.818181H103.607V27H100.589ZM113.067 27L105.396 17.2841L107.544 15.1875L116.902 27H113.067Z" fill="#FFA500"/>
</svg>
