<svg width="355" height="355" viewBox="0 0 355 355" fill="none" xmlns="http://www.w3.org/2000/svg">
<path d="M214.622 1.48901C212.889 2.28901 210.222 4.68901 208.622 6.82235L205.955 10.4223L208.889 24.8223C215.822 58.689 213.555 85.7557 201.155 116.689C181.022 166.956 133.689 203.756 78.4886 211.889C64.222 213.889 38.8886 212.689 23.422 209.222C10.3553 206.156 7.1553 206.689 2.62197 212.556C-0.97803 217.222 -0.97803 220.422 3.28864 232.822C11.822 257.756 25.9553 280.556 44.8886 300.022C60.222 315.889 75.9553 327.356 95.1553 336.556C122.755 349.756 143.955 354.689 173.155 354.822C211.555 354.956 243.022 345.356 275.022 324.156C312.489 299.089 340.089 258.689 350.622 213.089C354.355 196.822 355.422 164.422 352.622 147.756C341.555 80.289 295.155 24.9557 231.822 3.75568C218.355 -0.777655 218.889 -0.777655 214.622 1.48901ZM263.822 48.8223C295.555 71.489 317.155 104.822 326.089 144.956C329.022 158.689 329.022 191.222 325.955 204.822C315.155 253.222 285.955 291.356 243.022 312.956C201.022 334.156 147.555 334.422 106.222 313.622C77.422 299.222 50.4886 272.822 36.622 245.356C34.622 241.356 33.1553 238.022 33.422 237.889C33.6886 237.622 38.8886 238.022 45.1553 238.556C70.222 240.689 104.489 235.089 128.622 224.822C160.089 211.356 188.089 188.022 208.355 158.422C216.089 147.222 227.289 123.222 231.155 109.756C236.755 90.1557 238.755 73.489 238.089 52.0223L237.555 33.089L246.355 37.889C251.155 40.5557 259.022 45.489 263.822 48.8223Z" fill="#5C5C5C"/>
</svg>
