<svg width="27" height="36" viewBox="0 0 27 36" fill="none" xmlns="http://www.w3.org/2000/svg">
<path d="M5.76434 9.52857C5.76434 11.5253 6.55753 13.4402 7.9694 14.8521C9.38129 16.264 11.2961 17.0571 13.2929 17.0571C15.2897 17.0571 17.2046 16.264 18.6164 14.8521C20.0283 13.4402 20.8215 11.5253 20.8215 9.52857C20.8215 7.53186 20.0283 5.61695 18.6164 4.20506C17.2046 2.79319 15.2897 2 13.2929 2C11.2961 2 9.38129 2.79319 7.9694 4.20506C6.55753 5.61695 5.76434 7.53186 5.76434 9.52857Z" stroke="black" stroke-width="3" stroke-linecap="round" stroke-linejoin="round"/>
<path d="M2 34.4213V30.657C2 28.6602 2.79319 26.7453 4.20506 25.3335C5.61695 23.9216 7.53186 23.1284 9.52857 23.1284H17.0571C19.0539 23.1284 20.9688 23.9216 22.3806 25.3335C23.7926 26.7453 24.5857 28.6602 24.5857 30.657V34.4213" stroke="black" stroke-width="3" stroke-linecap="round" stroke-linejoin="round"/>
</svg>
