<svg width="27" height="37" viewBox="0 0 27 37" fill="none" xmlns="http://www.w3.org/2000/svg">
<path d="M5.97144 9.81788C5.97144 11.8146 6.76463 13.7295 8.1765 15.1414C9.58839 16.5533 11.5032 17.3464 13.5 17.3464C15.4968 17.3464 17.4117 16.5533 18.8235 15.1414C20.2354 13.7295 21.0286 11.8146 21.0286 9.81788C21.0286 7.82117 20.2354 5.90626 18.8235 4.49437C17.4117 3.0825 15.4968 2.28931 13.5 2.28931C11.5032 2.28931 9.58839 3.0825 8.1765 4.49437C6.76463 5.90626 5.97144 7.82117 5.97144 9.81788Z" stroke="white" stroke-width="3" stroke-linecap="round" stroke-linejoin="round"/>
<path d="M2.20709 34.7106V30.9463C2.20709 28.9495 3.00028 27.0346 4.41215 25.6228C5.82404 24.2109 7.73895 23.4177 9.73566 23.4177H17.2642C19.261 23.4177 21.1759 24.2109 22.5877 25.6228C23.9997 27.0346 24.7928 28.9495 24.7928 30.9463V34.7106" stroke="white" stroke-width="3" stroke-linecap="round" stroke-linejoin="round"/>
</svg>
