<svg width="361" height="362" viewBox="0 0 361 362" fill="none" xmlns="http://www.w3.org/2000/svg">
<path d="M174.728 2.00351C172.328 3.07018 169.794 5.47018 169.128 7.33685C168.328 9.33685 167.794 24.0035 167.794 40.0035V69.3368L171.528 73.4702C174.461 76.8035 176.328 77.6035 180.461 77.6035C184.594 77.6035 186.461 76.8035 189.394 73.4702L193.128 69.3368V39.2035C193.128 20.2702 192.594 8.13685 191.661 6.40351C190.461 4.13685 182.994 -0.129822 180.194 0.00351158C179.661 0.136845 177.128 0.936845 174.728 2.00351Z" fill="#FF7F50"/>
<path d="M55.9273 51.2031C49.9273 54.5365 47.5273 62.4031 50.594 68.4031C52.3273 71.8698 89.2607 108.536 92.994 110.67C99.394 114.003 109.127 109.336 110.994 102.136C112.461 96.2698 109.127 91.4698 90.0607 72.2698C66.8607 48.9365 63.6607 46.9365 55.9273 51.2031Z" fill="#FF7F50"/>
<path d="M294.461 50.2701C290.328 51.7367 251.794 91.3367 250.461 95.4701C248.728 100.67 250.328 105.337 255.261 109.203C259.394 112.403 263.794 112.803 268.861 110.137C272.728 108.137 305.794 74.9367 309.528 69.3367C312.061 65.6034 312.461 59.7367 310.461 55.8701C307.928 51.2034 299.928 48.2701 294.461 50.2701Z" fill="#FF7F50"/>
<path d="M164.461 105.336C149.794 108.27 134.727 117.07 123.527 129.203C95.5275 159.47 96.4608 206.003 125.794 235.336C156.194 265.87 203.794 266.27 234.061 236.27C253.261 217.47 260.994 194.003 256.594 168.67C253.661 151.603 247.261 139.336 234.461 126.67C223.661 115.736 213.394 109.87 198.861 106.136C190.327 103.87 173.527 103.603 164.461 105.336ZM190.727 130.803C220.994 137.203 238.994 168.27 229.127 197.336C224.061 212.536 211.927 224.803 197.127 230.003C189.394 232.803 173.927 232.803 164.727 230.136C156.994 227.87 146.461 220.803 140.594 213.736C138.727 211.47 135.394 206.003 133.394 201.736C130.194 194.936 129.794 192.403 129.794 180.67C129.927 168.536 130.194 166.536 133.794 159.47C144.861 137.336 167.661 125.87 190.727 130.803Z" fill="#FF7F50"/>
<path d="M6.59413 169.87C-0.872541 174.003 -2.20587 183.07 3.66079 189.603L7.52746 194.003H38.4608H69.3941L73.2608 189.603C79.3941 182.67 78.1941 174.003 70.4608 170.003C65.1275 167.337 11.5275 167.203 6.59413 169.87Z" fill="#FF7F50"/>
<path d="M290.594 169.87C283.127 174.003 281.794 183.07 287.661 189.603L291.527 194.003H322.461H353.394L357.261 189.603C363.127 183.07 361.794 173.737 354.327 169.87C349.127 167.203 295.394 167.203 290.594 169.87Z" fill="#FF7F50"/>
<path d="M71.5272 271.603C49.1272 293.87 47.1272 297.203 50.4606 305.203C52.7272 310.803 60.3272 314.136 66.1939 311.87C71.5272 309.87 108.861 272.403 110.461 267.336C113.261 258.936 106.994 250.67 97.9272 250.67C92.8606 250.67 91.6606 251.603 71.5272 271.603Z" fill="#FF7F50"/>
<path d="M254.861 253.07C250.594 256.403 248.727 262.27 250.327 266.937C251.927 271.603 290.194 310.137 294.994 312.003C296.861 312.67 299.527 312.937 300.727 312.537C308.861 309.87 311.794 306.137 311.794 298.27C311.794 294.67 308.994 291.337 290.061 272.403C269.261 251.603 268.194 250.67 263.127 250.67C260.194 250.67 256.461 251.737 254.861 253.07Z" fill="#FF7F50"/>
<path d="M174.194 286.137C172.194 287.203 169.928 289.203 169.128 290.67C168.328 292.137 167.794 305.203 167.794 323.203V353.07L171.261 357.203C176.061 362.937 183.661 363.07 189.261 357.47L193.128 353.603V323.337C193.128 290.137 192.728 288.137 184.861 285.47C179.661 283.603 178.594 283.737 174.194 286.137Z" fill="#FF7F50"/>
</svg>
